<svg xmlns="http://www.w3.org/2000/svg" width="65" height="65" viewBox="0 0 65 65"><g fill="none" fill-rule="evenodd"><path fill="#C00" d="M0 65h65V0H0z"/><g fill="#FEFEFE"><path d="M54.278 22.374v18.221c0 .723-.453 1.333-1.127 1.517a1.547 1.547 0 0 1-.397.053c-.514 0-1.106-.257-1.533-.982-.023-.039-1.714-2.957-4.295-7.404l-4.276-7.37c-.236-.404-.568-.594-.885-.508-.269.074-.444.321-.444.63v14.064c0 .723-.452 1.333-1.126 1.517-.576.158-1.387-.006-1.93-.929l-3.919-6.754-4.65-8.02c-.24-.405-.574-.595-.896-.507-.206.057-.447.255-.447.629v13.757c0 .906-.796 1.7-1.703 1.7h-6.984c-4.646 0-8.426-3.779-8.426-8.426 0-4.646 3.78-8.425 8.426-8.425h3.627v-2.763H19.67c-6.18 0-11.189 5.009-11.189 11.188 0 6.18 5.01 11.19 11.19 11.19h7.05c2.681.001 4.405-1.569 4.401-4.468v-6.381s4.5 7.749 4.706 8.1c2.855 4.851 8.252 2.846 8.252-1.329v-6.771s4.498 7.749 4.704 8.1c2.855 4.851 8.252 2.846 8.252-1.329v-18.3h-2.757z"/><path d="M12.162 33.563c0 4.137 3.367 7.504 7.504 7.504h6.985c.439 0 .78-.419.78-.778l.002-13.759c0-.724.452-1.333 1.126-1.517.577-.158 1.386.004 1.93.928l4.655 8.025 3.916 6.75c.237.405.572.594.893.506.207-.056.449-.254.449-.628V26.53c0-.725.45-1.335 1.122-1.517.573-.157 1.379.006 1.92.928l4.28 7.375 4.292 7.4c.238.405.572.595.894.506.207-.056.448-.254.448-.628v-18.22h-2.77v10.848s-4.498-7.75-4.705-8.1c-2.854-4.852-8.252-2.847-8.252 1.33v6.77s-4.498-7.75-4.703-8.1c-2.856-4.852-8.252-2.847-8.252 1.33v11.095a.738.738 0 0 1-.745.757h-4.234a4.742 4.742 0 1 1 0-9.483h3.597v-2.763h-3.628c-4.137 0-7.504 3.368-7.504 7.505"/></g></g></svg>