<svg id="spon-copylink-xl" class="stroke-current" width="28" height="28" viewBox="0 0 28 28" fill="none" stroke="black" xmlns="http://www.w3.org/2000/svg" role="img" aria-hidden="true">
    <g id="xl-copylink-c638ac99-1953-4c8c-b10a-25b606e7a827" stroke-width="1.1" stroke-linecap="round">
        <path id="rectangle-c638ac99-1953-4c8c-b10a-25b606e7a827" d="M14.47 17.3s.945.944-.1 1.989l-2.137 2.137a3.5 3.5 0 01-4.95 0l-.354-.354-.354-.354a3.5 3.5 0 010-4.95l2.137-2.137c1.045-1.045 1.987-.102 1.987-.102" stroke-miterlimit="10"></path>
        <path id="rectangle_2-c638ac99-1953-4c8c-b10a-25b606e7a827" d="M17.299 14.471s.944.945 1.989-.1l2.137-2.137a3.5 3.5 0 000-4.95l-.354-.354-.354-.354a3.5 3.5 0 00-4.95 0L13.63 8.713c-1.045 1.045-.102 1.987-.102 1.987" stroke-miterlimit="10"></path>
        <path id="vector-c638ac99-1953-4c8c-b10a-25b606e7a827" d="M10.293 17.707l7.414-7.414"></path>
    </g>
</svg>