<svg id="spon-spiegel-tablet-desktop" width="113" height="23" viewBox="0 0 113 23" fill="none" xmlns="http://www.w3.org/2000/svg" role="img" aria-hidden="true">
    <path d="M22.956 9.047V3.833h5.233v5.214h-5.233zm9.696 1.38V2.453C32.652 1.073 31.575 0 30.19 0H16.646v3.833h1.847v15.334h-1.847V23h8.003v-3.833h-1.693V12.88h7.234c1.385 0 2.462-1.073 2.462-2.453zM40.501 19.167V3.833h1.847V0h-8.003v3.833h1.847v15.334h-1.847V23h8.003v-3.833h-1.847zM55.738 14.873v4.294h-5.233V12.88h6.926V9.047h-6.926V3.833h5.233v3.22h4.463V0H44.35v3.833h1.693v15.334h-1.693V23h15.852v-8.127h-4.463zM68.358 9.047v3.833h3.54v6.287h-5.233V3.833h5.233v3.22h4.617v-4.6c0-1.38-1.077-2.453-2.462-2.453h-9.234c-.616 0-1.232.307-1.54.613-.461.46-.923 1.074-.923 1.84v18.094c0 .766.308 1.38.923 1.84.462.46 1.078.613 1.693.613h11.543V9.047h-8.157zM90.059 14.873v4.294h-5.233V12.88h6.926V9.047h-6.926V3.833h5.233v3.22h4.463V0H78.67v3.833h1.693v15.334H78.67V23h15.852v-8.127h-4.463zM108.066 14.873v4.294h-5.078V3.833h1.846V0h-8.157v3.833h1.847v15.334h-1.847V23h15.853v-8.127h-4.464zM14.645 20.685V9.107H5.103V3.86h5.079v3.242h4.617V2.47C14.8.988 13.414 0 12.03 0h-9.08C1.562 0 .485 1.08.485 2.47v10.496h9.542v6.33H4.95v-4.323H.486v5.557c0 1.39 1.077 2.47 2.462 2.47h9.08c1.417 0 2.617-.926 2.617-2.315z" fill="#fff"></path>
</svg>